<svg width="120" height="33" viewBox="0 0 120 33" fill="none" xmlns="http://www.w3.org/2000/svg">
<g clip-path="url(#clip0_4155_2312)">
<path d="M29.5345 12.3765L19.9318 2.80604C18.788 1.66615 17.2686 1.04004 15.6532 1.04004C14.0378 1.04004 12.5184 1.66615 11.3768 2.80604L1.77194 12.3765C0.630303 13.5164 0 15.0307 0 16.6407C0 18.2507 0.630303 19.7629 1.77194 20.9028L11.3747 30.4754C12.5163 31.6132 14.0357 32.2414 15.6511 32.2414C17.2665 32.2414 18.7859 31.6132 19.9276 30.4754L29.5324 20.9028C30.674 19.765 31.3043 18.2507 31.3043 16.6407C31.3064 15.0307 30.6761 13.5143 29.5345 12.3765ZM28.6558 20.0271L19.0531 29.5997C18.1452 30.5045 16.9368 31.0037 15.6553 31.0037C14.3717 31.0037 13.1654 30.5045 12.2575 29.5997L4.86502 22.232H11.2223L13.3386 25.8867H17.972L20.2887 21.8888L17.972 17.8908H13.3386L11.2202 21.5414H4.1721L2.6527 20.0271C1.74481 19.1223 1.24391 17.92 1.24391 16.6407C1.24391 15.3615 1.74481 14.1592 2.6527 13.2543L12.2554 3.68383C13.1633 2.77899 14.3697 2.28185 15.6532 2.28185C16.9368 2.28185 18.1431 2.77899 19.051 3.68383L26.5812 11.1888H20.0862L17.9699 7.532H13.3365L11.0199 11.5299L13.3365 15.5279H17.9699L20.0862 11.8731H27.2721L28.6558 13.2522C29.5637 14.1571 30.0646 15.3594 30.0646 16.6386C30.0646 17.92 29.5637 19.1223 28.6558 20.0271ZM12.4558 21.8867L14.0545 19.1264H17.2519L18.8506 21.8867L17.2519 24.647H14.0545L12.4558 21.8867ZM18.8506 11.5299L17.2519 14.2902H14.0545L12.4558 11.5299L14.0545 8.76965H17.2519L18.8506 11.5299ZM20.1655 13.583L18.6232 16.2455H12.6833L11.1409 13.583H7.59911L5.82717 16.6407L7.59911 19.6984H11.1409L12.6833 17.0359H18.6232L20.1655 19.6984H23.7073L25.4772 16.6407L23.7073 13.583H20.1655Z" fill="url(#paint0_linear_4155_2312)"/>
<path d="M52.35 26.0939C50.1546 26.0939 48.5691 25.6482 46.9022 24.7568C45.276 23.8654 43.975 22.6093 43.0806 20.9481C42.1862 19.3273 41.739 17.3825 41.739 15.1539V0.891408C41.739 0.607778 41.9829 0.405186 42.2675 0.405186H47.5527C47.8373 0.405186 48.0405 0.607778 48.0405 0.891408V15.1539C48.0405 16.7747 48.4877 18.0307 49.3415 18.9222C50.1953 19.8136 50.9677 20.2593 52.3906 20.2593C53.8135 20.2593 54.5453 19.8136 55.3584 18.9627C56.1715 18.0713 56.5781 16.7747 56.5781 15.1539V0.891408C56.5781 0.607778 56.822 0.405186 57.1066 0.405186H62.3918C62.6763 0.405186 62.9203 0.607778 62.9203 0.891408V15.1539C62.9203 17.3825 62.4731 19.3273 61.5787 20.9481C60.7249 22.6093 59.4239 23.8654 57.7977 24.7568C56.1715 25.6482 54.5453 26.0939 52.35 26.0939ZM79.7921 26.0939C77.3934 26.0939 75.1981 25.5267 73.2466 24.3922C71.2952 23.2171 69.7503 21.6369 68.6526 19.6515C67.5549 17.6661 66.9858 15.4376 66.9858 12.9659C66.9858 10.5753 67.5549 8.34682 68.6933 6.36141C69.8316 4.41652 71.4172 2.8363 73.3686 1.70178C75.3607 0.56726 77.5967 0 79.9547 0C81.7435 0 83.4917 0.405185 85.1992 1.13452C86.9067 1.90437 88.3703 2.91733 89.5899 4.21393C89.7526 4.41652 89.7526 4.70015 89.5899 4.90274L85.7277 8.06319C85.6058 8.18475 85.4838 8.26578 85.3212 8.26578C85.1586 8.26578 84.9959 8.18475 84.9146 8.06319C82.8412 5.55104 79.5075 5.0243 76.7023 6.7666C74.263 8.26578 73.3686 11.021 73.4906 13.7763C73.6125 16.5721 75.6453 18.9627 78.3285 19.773C80.7678 20.5024 83.1665 19.9351 84.9146 18.0713C85.0366 17.9902 85.1586 17.9092 85.3212 17.9497C85.4838 17.9497 85.6058 17.9902 85.6871 18.1118L89.6306 20.867C89.7932 21.0696 89.7932 21.3533 89.6306 21.5559C88.3296 22.9335 86.7848 24.068 85.0772 24.8784C83.3291 25.6888 81.5403 26.0939 79.7921 26.0939ZM106.909 26.0939C104.47 26.0939 102.234 25.5267 100.282 24.3922C98.2901 23.2576 96.7046 21.6369 95.5256 19.692C94.3872 17.7066 93.8181 15.4376 93.8181 13.0065C93.8181 10.6159 94.3872 8.38734 95.5256 6.40193C96.7046 4.41652 98.2495 2.8363 100.242 1.70178C102.234 0.56726 104.47 0 106.909 0C109.308 0 111.544 0.56726 113.536 1.70178C115.528 2.8363 117.113 4.41652 118.252 6.40193C119.431 8.38734 120 10.6159 120 13.0065C120 15.4376 119.431 17.6661 118.252 19.6515C117.113 21.6369 115.528 23.2171 113.536 24.3922C111.544 25.5267 109.308 26.0939 106.909 26.0939ZM106.99 20.2593C108.169 20.2593 109.267 19.9351 110.243 19.3273C111.259 18.679 112.072 17.8282 112.641 16.6936C113.251 15.5996 113.536 14.3436 113.536 13.0065C113.536 11.7099 113.251 10.4538 112.641 9.35978C112.072 8.26578 111.259 7.41489 110.243 6.7666C109.267 6.15882 108.169 5.83467 106.99 5.83467C105.771 5.83467 104.673 6.15882 103.657 6.7666C102.6 7.41489 101.786 8.26578 101.177 9.35978C100.567 10.4943 100.282 11.7099 100.282 13.0065C100.282 14.3436 100.567 15.5996 101.177 16.6936C101.827 17.7876 102.64 18.679 103.657 19.2868C104.673 19.9351 105.771 20.2593 106.99 20.2593Z" fill="url(#paint1_linear_4155_2312)"/>
<path d="M49.3438 29.0423L49.3504 30.4249C49.3532 30.7309 49.2719 31.0279 49.1217 31.2613C48.9624 31.5088 48.6523 31.8051 48.08 31.8116C48.0744 31.8116 48.0688 31.8117 48.0633 31.8117C47.6301 31.8117 47.2683 31.6225 47.0431 31.2778C46.8882 31.0408 46.8044 30.7388 46.8068 30.4272L46.8 29.0465L47.1747 29.0423L47.1815 30.429L47.1815 30.4321C47.1799 30.5928 47.224 30.7464 47.309 30.8765C47.4654 31.116 47.7381 31.2456 48.0772 31.242C48.4232 31.2382 48.699 31.1036 48.8539 30.863C48.9351 30.7368 48.9773 30.5878 48.9758 30.4321V30.43L48.9691 29.0465L49.3438 29.0423ZM52.4305 29.0434V29.6242L50.6152 31.241H52.4305V31.8105H49.8868V31.2297L51.7021 29.6128H49.8868V29.0434H52.4305ZM55.5045 29.9048C55.5045 30.1493 55.452 30.3314 55.375 30.4622C55.4525 30.5917 55.5045 30.7689 55.5045 31.0036C55.5045 31.6156 55.1763 31.8378 54.9557 31.8378H52.9608V29.0706H54.9139C55.1513 29.0706 55.5045 29.2928 55.5045 29.9048ZM55.0594 31.2242C55.0942 31.195 55.1298 31.1458 55.1298 31.0036C55.1298 30.8892 55.1043 30.8272 55.0389 30.7827C54.9795 30.7422 54.9145 30.7389 54.9139 30.7389H53.3355V31.2682H54.954C54.9703 31.2674 55.0192 31.2581 55.0594 31.2242ZM55.0594 30.1254C55.0942 30.0961 55.1298 30.047 55.1298 29.9048C55.1298 29.7903 55.1043 29.7284 55.0389 29.6838C54.9795 29.6433 54.9145 29.6401 54.9139 29.6401H53.3355V30.1694H54.954C54.9703 30.1686 55.0192 30.1592 55.0594 30.1254ZM58.5306 29.6401L56.3616 29.6401V30.1704L57.8083 30.1786L57.8069 30.7481L56.3616 30.7399V31.2683H58.5306V31.8378H55.9869V29.0706H58.5306L58.5306 29.6401ZM61.5773 31.2575L61.5829 31.8213L61.3974 31.8255C61.3686 31.8262 61.336 31.827 61.3005 31.827C61.0436 31.827 60.6318 31.7882 60.3712 31.3981C60.2475 31.2128 60.1726 30.9738 60.1475 30.6858C60.0112 30.716 59.8612 30.7324 59.697 30.7324H59.4351V31.8203H59.0641V29.0805H59.4351V30.1685H59.697C60.4565 30.1685 60.8538 29.7742 60.8538 29.3848V29.1028H61.2248V29.3847C61.2248 29.8483 60.9992 30.3146 60.5116 30.5586C60.5215 30.7467 60.5609 30.8906 60.6316 30.9964C60.8176 31.2748 61.2054 31.266 61.3918 31.2617L61.5773 31.2575ZM62.49 31.841H62.1189V29.1011H62.49V31.841ZM63.4706 29.653C63.4358 29.6823 63.4002 29.7314 63.4002 29.8737C63.4002 29.9846 63.4238 30.0452 63.4844 30.0898C63.5456 30.1349 63.6139 30.1382 63.6174 30.1384L64.9793 30.1464C65.216 30.1464 65.5692 30.3686 65.5692 30.9806C65.5692 31.5926 65.241 31.8147 65.0203 31.8147H63.0255V31.2453H65.0187C65.035 31.2444 65.0838 31.235 65.1241 31.2012C65.1589 31.1719 65.1945 31.1228 65.1945 30.9806C65.1945 30.8697 65.1709 30.809 65.1103 30.7644C65.0493 30.7194 64.981 30.716 64.9772 30.7159L63.6161 30.7067V30.7078C63.3787 30.7078 63.0255 30.4856 63.0255 29.8736C63.0255 29.2616 63.3537 29.0395 63.5743 29.0395H65.5692V29.609H63.576C63.5597 29.6098 63.5108 29.6192 63.4706 29.653ZM66.1027 29.0395H68.6464V29.609H67.5618V31.8147H67.1871V29.609H66.1027L66.1027 29.0395ZM69.848 28.854L71.3126 31.811H70.8417L70.4321 30.9869H69.2639L68.8603 31.811H68.3946L69.848 28.854ZM69.5449 30.4174H70.1511L69.848 29.8031L69.5449 30.4174ZM73.8674 29.0679H74.2421V31.7968L72.0732 30.0751V31.8351H71.6984V29.1062L73.8674 30.8279V29.0679ZM78.7083 31.265L78.7148 31.8288L78.5293 31.8337C78.5269 31.8337 78.3653 31.8378 78.0492 31.8378C77.8891 31.8378 77.6894 31.8367 77.4506 31.8336C77.0655 31.8285 76.7575 31.7021 76.5353 31.4579C76.3145 31.2151 76.1929 30.8621 76.1929 30.4637C76.1929 30.0655 76.3156 29.7117 76.5383 29.4673C76.759 29.2251 77.0748 29.0959 77.4515 29.0937C78.1603 29.0896 78.5239 29.0938 78.5275 29.0938L78.713 29.096L78.7101 29.6599L78.5246 29.6577C78.521 29.6576 78.1592 29.6534 77.453 29.6576C76.9046 29.6608 76.5639 29.9697 76.5639 30.4637C76.5639 30.6825 76.6275 30.8633 76.7528 31.001C76.9091 31.1728 77.1515 31.2658 77.4539 31.2698C78.1584 31.2791 78.5193 31.27 78.5229 31.2699L78.7083 31.265ZM81.6347 29.3243C81.7812 29.545 81.78 29.8643 81.7781 30.3475C81.778 30.3835 81.7779 30.4208 81.7778 30.4594C81.777 30.7462 81.7765 30.9534 81.7567 31.1282C81.7399 31.2772 81.7009 31.4919 81.5583 31.6365C81.3776 31.8195 81.1077 31.8236 80.5163 31.8326C80.424 31.834 80.3388 31.8351 80.2602 31.8351C79.7917 31.8351 79.5562 31.7974 79.4057 31.5701C79.249 31.3334 79.2499 30.9849 79.2512 30.4573C79.2526 29.8686 79.2535 29.5133 79.4499 29.2927C79.6193 29.1024 79.8653 29.0974 80.4042 29.0864L80.5118 29.0841C81.1836 29.0695 81.4616 29.0635 81.6347 29.3243ZM81.406 30.3443C81.407 30.0666 81.4081 29.7794 81.3727 29.726C81.3287 29.6598 81.1313 29.6444 80.8686 29.6444C80.7605 29.6444 80.6413 29.647 80.5171 29.6497L80.4092 29.652C80.0231 29.6598 79.7441 29.6656 79.6711 29.7476C79.625 29.7993 79.6242 30.1052 79.6234 30.4594C79.6226 30.7883 79.6218 31.099 79.6681 31.1689C79.7408 31.2787 80.1331 31.2727 80.5126 31.267C80.9484 31.2604 81.2632 31.2556 81.3518 31.1658C81.404 31.1129 81.4047 30.8379 81.4056 30.4573C81.4057 30.4183 81.4058 30.3806 81.406 30.3443ZM84.6239 29.61C84.7764 29.8452 84.8588 30.1464 84.8559 30.4583C84.8522 30.8444 84.7298 31.1966 84.5111 31.4502C84.2833 31.7144 83.9628 31.854 83.5841 31.854C82.8613 31.854 82.4975 31.8378 82.4939 31.8377L82.3122 31.8294V29.0706H83.5841C84.1543 29.0706 84.4643 29.364 84.6239 29.61ZM83.5841 31.2845C84.1984 31.2845 84.4773 30.8654 84.4812 30.4501C84.4827 30.2896 84.4398 30.1374 84.3571 30.0098C84.2024 29.7714 83.9279 29.6401 83.5841 29.6401H82.6869V31.2743C82.8609 31.2789 83.1598 31.2845 83.5841 31.2845ZM85.7636 31.841H85.3926V29.1011H85.7636V31.841ZM88.4681 29.0679H88.8428V31.7968L86.6738 30.0751V31.8351H86.2991V29.1062L88.4681 30.8279V29.0679ZM91.8949 30.4753C91.8918 30.8066 91.8949 31.5499 91.895 31.5573L91.8962 31.8411H90.6356C90.2569 31.8411 89.94 31.7123 89.7193 31.4686C89.4981 31.2244 89.3763 30.8702 89.3763 30.4712C89.3763 30.1403 89.4585 29.8414 89.6139 29.6069C89.8364 29.2711 90.1902 29.0961 90.637 29.1012C90.9095 29.1043 91.701 29.1013 91.709 29.1012L91.8945 29.1005L91.8954 29.6644L91.7099 29.6651C91.7019 29.6651 90.9086 29.6682 90.6343 29.6651C90.2931 29.661 90.0239 29.7828 89.8753 30.0071C89.7903 30.1352 89.7473 30.2913 89.7473 30.4712C89.7473 30.9684 90.0877 31.2773 90.6356 31.2773H91.523C91.5226 31.1228 91.5223 30.9281 91.5226 30.7531H90.8081V30.1892H91.8977L91.8949 30.4753ZM96.2354 29.3243C96.3819 29.545 96.3807 29.8643 96.3788 30.3475C96.3787 30.3835 96.3785 30.4208 96.3784 30.4594C96.3777 30.7462 96.3772 30.9534 96.3574 31.1282C96.3405 31.2772 96.3016 31.4919 96.1589 31.6365C95.9782 31.8195 95.7083 31.8236 95.117 31.8326C95.0247 31.834 94.9395 31.8351 94.8609 31.8351C94.3924 31.8351 94.1569 31.7974 94.0064 31.5701C93.8497 31.3334 93.8506 30.9849 93.8519 30.4573C93.8533 29.8686 93.8542 29.5133 94.0505 29.2927C94.2199 29.1024 94.4659 29.0974 95.0049 29.0864L95.1125 29.0841C95.7842 29.0695 96.0623 29.0635 96.2354 29.3243ZM96.0066 30.3443C96.0077 30.0666 96.0088 29.7794 95.9733 29.726C95.9294 29.6598 95.732 29.6444 95.4692 29.6444C95.3611 29.6444 95.2419 29.647 95.1178 29.6497L95.0099 29.652C94.6238 29.6598 94.3448 29.6656 94.2718 29.7476C94.2257 29.7993 94.2249 30.1052 94.224 30.4594C94.2232 30.7883 94.2225 31.099 94.2688 31.1689C94.3414 31.2787 94.7338 31.2727 95.1133 31.267C95.549 31.2604 95.8639 31.2556 95.9525 31.1658C96.0047 31.1129 96.0053 30.8379 96.0063 30.4573C96.0064 30.4183 96.0065 30.3806 96.0066 30.3443ZM97.2876 31.2575H99.4566V31.827H96.9129V29.0599H97.2876V31.2575ZM101.896 29.0321L101.899 29.3168C101.901 29.6232 101.82 29.9206 101.67 30.1543C101.529 30.3737 101.269 30.6312 100.813 30.6914L100.807 31.8136L100.433 31.8097L100.438 30.694C100.082 30.65 99.7857 30.4685 99.5912 30.1707C99.4358 29.9329 99.3519 29.6297 99.3549 29.3168L99.3576 29.0321L99.7323 29.0404L99.7296 29.3251C99.7281 29.4858 99.7721 29.6395 99.8571 29.7695C100.014 30.009 100.287 30.1391 100.625 30.1351C100.971 30.1312 101.247 29.9966 101.402 29.7561C101.483 29.6298 101.525 29.4808 101.524 29.3251L101.521 29.0404L101.896 29.0321ZM103.707 30.3949L104.979 29.1062V31.8351H104.604V30.1703L103.707 31.0793L102.81 30.1703V31.8351H102.435V29.1062L103.707 30.3949ZM107.472 29.0395C107.709 29.0395 108.062 29.2617 108.062 29.8737C108.062 30.4857 107.734 30.7078 107.513 30.7078H105.89L105.887 31.8077L105.512 31.8056L105.518 29.3247V29.0395H105.519V29.0385L105.706 29.0395L107.472 29.0395ZM107.617 30.0943C107.652 30.065 107.687 30.0159 107.687 29.8737C107.687 29.7593 107.662 29.6973 107.597 29.6528C107.537 29.6122 107.472 29.609 107.472 29.609H105.893V30.1383H107.512C107.528 30.1375 107.577 30.1281 107.617 30.0943ZM108.967 31.841H108.596V29.1011H108.967V31.841ZM110.806 28.854L112.271 31.811H111.8L111.39 30.9869H110.222L109.818 31.811H109.352L110.806 28.854ZM110.503 30.4174H111.109L110.806 29.8031L110.503 30.4174ZM114.968 29.61C115.121 29.8452 115.203 30.1464 115.2 30.4583C115.196 30.8444 115.074 31.1966 114.855 31.4502C114.627 31.7144 114.307 31.854 113.928 31.854C113.205 31.854 112.842 31.8378 112.838 31.8377L112.656 31.8294V29.0706H113.928C114.498 29.0706 114.808 29.364 114.968 29.61ZM113.928 31.2845C114.543 31.2845 114.821 30.8654 114.825 30.4501C114.827 30.2896 114.784 30.1374 114.701 30.0098C114.547 29.7714 114.272 29.6401 113.928 29.6401H113.031V31.2743C113.205 31.2789 113.504 31.2845 113.928 31.2845Z" fill="url(#paint2_linear_4155_2312)"/>
</g>
<defs>
<linearGradient id="paint0_linear_4155_2312" x1="15.6522" y1="1.04004" x2="15.6522" y2="19.4996" gradientUnits="userSpaceOnUse">
<stop stop-color="#8C82FF"/>
<stop offset="1" stop-color="#4A3AFF"/>
</linearGradient>
<linearGradient id="paint1_linear_4155_2312" x1="78.2608" y1="0.779982" x2="79.2972" y2="27.0396" gradientUnits="userSpaceOnUse">
<stop offset="0.0965754" stop-color="#8C82FF"/>
<stop offset="1" stop-color="#4A3AFF"/>
</linearGradient>
<linearGradient id="paint2_linear_4155_2312" x1="46.8" y1="30.354" x2="115.2" y2="30.354" gradientUnits="userSpaceOnUse">
<stop stop-color="#4A3AFF"/>
<stop offset="1" stop-color="#8C82FF"/>
</linearGradient>
<clipPath id="clip0_4155_2312">
<rect width="120" height="33" fill="white"/>
</clipPath>
</defs>
</svg>
