<svg width="200" height="55" viewBox="0 0 200 55" fill="none" xmlns="http://www.w3.org/2000/svg">
<g clip-path="url(#clip0_4155_3953)">
<path d="M49.2241 20.6275L33.2196 4.67673C31.3134 2.77691 28.781 1.7334 26.0887 1.7334C23.3963 1.7334 20.864 2.77691 18.9613 4.67673L2.95324 20.6275C1.0505 22.5274 0 25.0512 0 27.7345C0 30.4178 1.0505 32.9382 2.95324 34.838L18.9578 50.7923C20.8605 52.6887 23.3929 53.7356 26.0852 53.7356C28.7776 53.7356 31.3099 52.6887 33.2126 50.7923L49.2207 34.838C51.1234 32.9417 52.1739 30.4178 52.1739 27.7345C52.1774 25.0512 51.1269 22.5239 49.2241 20.6275ZM47.7597 33.3785L31.7552 49.3328C30.242 50.8408 28.228 51.6729 26.0922 51.6729C23.9529 51.6729 21.9423 50.8408 20.4292 49.3328L8.10836 37.0533H18.7038L22.231 43.1445H29.9533L33.8144 36.4813L29.9533 29.8181H22.231L18.7004 35.9023H6.9535L4.42116 33.3785C2.90802 31.8704 2.07318 29.8666 2.07318 27.7345C2.07318 25.6024 2.90802 23.5986 4.42116 22.0905L20.4257 6.13972C21.9388 4.63166 23.9494 3.80309 26.0887 3.80309C28.228 3.80309 30.2385 4.63166 31.7517 6.13972L44.3021 18.648H33.477L29.9498 12.5533H22.2276L18.3664 19.2166L22.2276 25.8798H29.9498L33.477 19.7886H45.4535L47.7597 22.0871C49.2728 23.5951 50.1077 25.599 50.1077 27.7311C50.1077 29.8666 49.2728 31.8704 47.7597 33.3785ZM20.7596 36.4778L23.4242 31.8774H28.7532L31.4177 36.4778L28.7532 41.0783H23.4242L20.7596 36.4778ZM31.4177 19.2166L28.7532 23.817H23.4242L20.7596 19.2166L23.4242 14.6161H28.7532L31.4177 19.2166ZM33.6092 22.6383L31.0386 27.0758H21.1388L18.5682 22.6383H12.6652L9.71195 27.7345L12.6652 32.8307H18.5682L21.1388 28.3932H31.0386L33.6092 32.8307H39.5122L42.462 27.7345L39.5122 22.6383H33.6092Z" fill="url(#paint0_linear_4155_3953)"/>
<path d="M87.2504 43.4899C83.5914 43.4899 80.9488 42.7471 78.1707 41.2614C75.4604 39.7757 73.2921 37.6822 71.8015 34.9135C70.3108 32.2122 69.5654 28.9708 69.5654 25.2566V1.48568C69.5654 1.01296 69.972 0.67531 70.4463 0.67531H79.2549C79.7292 0.67531 80.068 1.01296 80.068 1.48568V25.2566C80.068 27.9578 80.8133 30.0512 82.2362 31.5369C83.6592 33.0226 84.9466 33.7654 87.3181 33.7654C89.6897 33.7654 90.9093 33.0226 92.2645 31.6045C93.6196 30.1188 94.2972 27.9578 94.2972 25.2566V1.48568C94.2972 1.01296 94.7038 0.67531 95.1781 0.67531H103.987C104.461 0.67531 104.868 1.01296 104.868 1.48568V25.2566C104.868 28.9708 104.122 32.2122 102.632 34.9135C101.209 37.6822 99.0403 39.7757 96.33 41.2614C93.6196 42.7471 90.9093 43.4899 87.2504 43.4899ZM132.987 43.4899C128.989 43.4899 125.331 42.5445 122.078 40.6536C118.826 38.6952 116.251 36.0615 114.421 32.7525C112.592 29.4435 111.643 25.7293 111.643 21.6099C111.643 17.6256 112.592 13.9114 114.489 10.6024C116.386 7.36087 119.029 4.72716 122.281 2.8363C125.602 0.945433 129.328 0 133.258 0C136.24 0 139.153 0.675309 141.999 1.89086C144.845 3.17395 147.284 4.86222 149.317 7.02321C149.588 7.36087 149.588 7.83358 149.317 8.17124L142.88 13.4386C142.677 13.6412 142.473 13.7763 142.202 13.7763C141.931 13.7763 141.66 13.6412 141.525 13.4386C138.069 9.25173 132.513 8.37383 127.838 11.2777C123.772 13.7763 122.281 18.3684 122.485 22.9605C122.688 27.6201 126.076 31.6045 130.548 32.9551C134.613 34.1706 138.611 33.2252 141.525 30.1188C141.728 29.9837 141.931 29.8487 142.202 29.9162C142.473 29.9162 142.677 29.9837 142.812 30.1863L149.385 34.7784C149.656 35.1161 149.656 35.5888 149.385 35.9264C147.216 38.2225 144.642 40.1133 141.796 41.464C138.882 42.8146 135.901 43.4899 132.987 43.4899ZM178.182 43.4899C174.117 43.4899 170.39 42.5445 167.137 40.6536C163.817 38.7627 161.175 36.0615 159.21 32.82C157.312 29.511 156.364 25.7293 156.364 21.6774C156.364 17.6931 157.312 13.9789 159.21 10.6699C161.175 7.36087 163.75 4.72716 167.07 2.8363C170.39 0.945433 174.117 0 178.182 0C182.18 0 185.906 0.945433 189.227 2.8363C192.547 4.72716 195.189 7.36087 197.087 10.6699C199.052 13.9789 200 17.6931 200 21.6774C200 25.7293 199.052 29.4435 197.087 32.7525C195.189 36.0615 192.547 38.6952 189.227 40.6536C185.906 42.5445 182.18 43.4899 178.182 43.4899ZM178.318 33.7654C180.283 33.7654 182.112 33.2252 183.738 32.2122C185.432 31.1317 186.787 29.7136 187.736 27.8227C188.752 25.9994 189.227 23.9059 189.227 21.6774C189.227 19.5164 188.752 17.423 187.736 15.5996C186.787 13.7763 185.432 12.3582 183.738 11.2777C182.112 10.2647 180.283 9.72445 178.318 9.72445C176.285 9.72445 174.455 10.2647 172.761 11.2777C171 12.3582 169.644 13.7763 168.628 15.5996C167.612 17.4905 167.137 19.5164 167.137 21.6774C167.137 23.9059 167.612 25.9994 168.628 27.8227C169.712 29.6461 171.067 31.1317 172.761 32.1447C174.455 33.2252 176.285 33.7654 178.318 33.7654Z" fill="url(#paint1_linear_4155_3953)"/>
<path d="M82.2395 48.4036L82.2506 50.7081C82.2552 51.218 82.1198 51.7129 81.8694 52.102C81.6038 52.5145 81.0871 53.0084 80.1332 53.0191C80.124 53.0192 80.1147 53.0193 80.1055 53.0193C79.3834 53.0193 78.7803 52.704 78.405 52.1295C78.147 51.7345 78.0072 51.2312 78.0112 50.7119L78 48.4107L78.6245 48.4037L78.6357 50.7148L78.6357 50.72C78.6331 50.9878 78.7066 51.2439 78.8482 51.4607C79.1089 51.8598 79.5634 52.0758 80.1286 52.0699C80.7052 52.0635 81.1649 51.8392 81.423 51.4382C81.5585 51.2278 81.6287 50.9795 81.6262 50.72V50.7166L81.615 48.4107L82.2395 48.4036ZM87.3841 48.4055V49.3735L84.3586 52.0682H87.3841V53.0173H83.1446V52.0494L86.1701 49.3546H83.1446V48.4055H87.3841ZM92.5074 49.8411C92.5074 50.2487 92.42 50.5522 92.2916 50.7702C92.4207 50.986 92.5074 51.2814 92.5074 51.6725C92.5074 52.6925 91.9604 53.0628 91.5927 53.0628H88.2679V48.4509H91.5231C91.9188 48.4509 92.5074 48.8211 92.5074 49.8411ZM91.7656 52.0402C91.8236 51.9914 91.8829 51.9096 91.8829 51.6725C91.8829 51.4818 91.8404 51.3786 91.7314 51.3043C91.6323 51.2368 91.5241 51.2313 91.5231 51.2313H88.8924V52.1136H91.5899C91.6172 52.1122 91.6985 52.0966 91.7656 52.0402ZM91.7656 50.2089C91.8236 50.16 91.8829 50.0782 91.8829 49.8411C91.8829 49.6504 91.8405 49.5472 91.7315 49.4729C91.6324 49.4054 91.5242 49.3999 91.5232 49.3999H88.8925V50.2822H91.5899C91.6172 50.2808 91.6985 50.2652 91.7656 50.2089ZM97.551 49.4L93.936 49.4V50.2839L96.3471 50.2975L96.3448 51.2467L93.936 51.233V52.1136H97.551V53.0628H93.3115V48.4509H97.551L97.551 49.4ZM102.629 52.0957L102.638 53.0354L102.329 53.0424C102.281 53.0435 102.227 53.0448 102.167 53.0448C101.739 53.0448 101.053 52.9802 100.619 52.33C100.412 52.0212 100.288 51.6228 100.246 51.1428C100.019 51.1931 99.7685 51.2204 99.495 51.2204H99.0584V53.0338H98.4401V48.4673H99.0584V50.2806H99.495C100.761 50.2806 101.423 49.6236 101.423 48.9745V48.5045H102.041V48.9744C102.041 49.7469 101.665 50.5242 100.853 50.9308C100.869 51.2443 100.935 51.4842 101.053 51.6605C101.363 52.1245 102.009 52.1098 102.32 52.1027L102.629 52.0957ZM104.15 53.0682H103.531V48.5017H104.15V53.0682ZM105.784 49.4215C105.726 49.4703 105.667 49.5521 105.667 49.7893C105.667 49.9741 105.706 50.0752 105.807 50.1495C105.909 50.2247 106.023 50.2302 106.029 50.2304L108.299 50.2439C108.693 50.2439 109.282 50.6142 109.282 51.6342C109.282 52.6542 108.735 53.0244 108.367 53.0244H105.042V52.0753H108.364C108.392 52.0738 108.473 52.0582 108.54 52.0019C108.598 51.9531 108.657 51.8712 108.657 51.6341C108.657 51.4493 108.618 51.3482 108.517 51.2739C108.415 51.1989 108.302 51.1932 108.295 51.193L106.027 51.1776V51.1795C105.631 51.1795 105.042 50.8092 105.042 49.7892C105.042 48.7692 105.589 48.399 105.957 48.399H109.282V49.3481H105.96C105.933 49.3496 105.851 49.3652 105.784 49.4215ZM110.171 48.399H114.411V49.3481H112.603V53.0244H111.978V49.3481H110.171L110.171 48.399ZM116.413 48.0898L118.854 53.0181H118.069L117.387 51.6446H115.44L114.767 53.0181H113.991L116.413 48.0898ZM115.908 50.6954H116.918L116.413 49.6717L115.908 50.6954ZM123.112 48.4464H123.737V52.9945L120.122 50.1249V53.0583H119.497V48.5101L123.112 51.3797V48.4464ZM131.181 52.1082L131.191 53.0479L130.882 53.056C130.878 53.0561 130.609 53.0629 130.082 53.0629C129.815 53.0629 129.482 53.0611 129.084 53.0559C128.442 53.0473 127.929 52.8367 127.559 52.4296C127.191 52.0251 126.988 51.4366 126.988 50.7726C126.988 50.1091 127.193 49.5193 127.564 49.112C127.932 48.7084 128.458 48.4931 129.086 48.4894C130.267 48.4824 130.873 48.4895 130.879 48.4895L131.188 48.4932L131.183 49.433L130.874 49.4293C130.868 49.4292 130.265 49.4222 129.088 49.4292C128.174 49.4345 127.606 49.9493 127.606 50.7726C127.606 51.1373 127.712 51.4386 127.921 51.6682C128.182 51.9545 128.586 52.1095 129.09 52.1161C130.264 52.1317 130.865 52.1165 130.871 52.1163L131.181 52.1082ZM136.058 48.8737C136.302 49.2416 136.3 49.7737 136.297 50.5791C136.297 50.639 136.296 50.7012 136.296 50.7655C136.295 51.2435 136.294 51.5889 136.261 51.8801C136.233 52.1284 136.168 52.4863 135.93 52.7273C135.629 53.0324 135.179 53.0392 134.194 53.0542C134.04 53.0565 133.898 53.0583 133.767 53.0583C132.986 53.0583 132.594 52.9955 132.343 52.6167C132.082 52.2222 132.083 51.6413 132.085 50.762C132.088 49.7809 132.089 49.1886 132.416 48.821C132.699 48.5038 133.109 48.4955 134.007 48.4771L134.186 48.4734C135.306 48.4491 135.769 48.439 136.058 48.8737ZM135.677 50.5736C135.678 50.1108 135.68 49.6321 135.621 49.5432C135.548 49.4328 135.219 49.4072 134.781 49.4072C134.601 49.4072 134.402 49.4116 134.195 49.416L134.015 49.4198C133.372 49.4329 132.907 49.4424 132.785 49.5791C132.708 49.6654 132.707 50.1752 132.706 50.7655C132.704 51.3137 132.703 51.8315 132.78 51.948C132.901 52.1309 133.555 52.1209 134.188 52.1114C134.914 52.1004 135.439 52.0925 135.586 51.9428C135.673 51.8547 135.674 51.3964 135.676 50.762C135.676 50.697 135.676 50.6342 135.677 50.5736ZM141.04 49.3499C141.294 49.7418 141.431 50.2439 141.426 50.7637C141.42 51.4071 141.216 51.9942 140.852 52.4169C140.472 52.8571 139.938 53.0898 139.307 53.0898C138.102 53.0898 137.496 53.0629 137.49 53.0626L137.187 53.0488V48.4509H139.307C140.257 48.4509 140.774 48.9398 141.04 49.3499ZM139.307 52.1407C140.331 52.1407 140.795 51.4422 140.802 50.7501C140.804 50.4826 140.733 50.2288 140.595 50.0162C140.337 49.6188 139.88 49.4 139.307 49.4H137.811V52.1237C138.101 52.1314 138.6 52.1407 139.307 52.1407ZM142.939 53.0682H142.321V48.5017H142.939V53.0682ZM147.447 48.4464H148.071V52.9945L144.456 50.1249V53.0583H143.832V48.5101L147.447 51.3797V48.4464ZM153.158 50.792C153.153 51.3441 153.158 52.583 153.158 52.5954L153.16 53.0684H151.059C150.428 53.0684 149.9 52.8537 149.532 52.4475C149.163 52.0405 148.96 51.4502 148.96 50.7851C148.96 50.2336 149.097 49.7355 149.356 49.3447C149.727 48.7851 150.317 48.4933 151.062 48.5019C151.516 48.507 152.835 48.502 152.848 48.5019L153.157 48.5007L153.159 49.4405L152.85 49.4417C152.836 49.4417 151.514 49.4468 151.057 49.4417C150.488 49.4349 150.04 49.6378 149.792 50.0116C149.65 50.2251 149.579 50.4854 149.579 50.7852C149.579 51.6138 150.146 52.1286 151.059 52.1286H152.538C152.538 51.8711 152.537 51.5466 152.538 51.255H151.347V50.3152H153.163L153.158 50.792ZM160.392 48.8737C160.636 49.2416 160.634 49.7737 160.631 50.5791C160.631 50.639 160.631 50.7012 160.631 50.7655C160.629 51.2435 160.629 51.5889 160.596 51.8801C160.567 52.1284 160.503 52.4863 160.265 52.7273C159.964 53.0324 159.514 53.0392 158.528 53.0542C158.374 53.0565 158.232 53.0583 158.101 53.0583C157.321 53.0583 156.928 52.9955 156.677 52.6167C156.416 52.2222 156.418 51.6413 156.42 50.762C156.422 49.7809 156.424 49.1886 156.751 48.821C157.033 48.5038 157.443 48.4955 158.341 48.4771L158.521 48.4734C159.64 48.4491 160.104 48.439 160.392 48.8737ZM160.011 50.5736C160.013 50.1108 160.015 49.6321 159.955 49.5432C159.882 49.4328 159.553 49.4072 159.115 49.4072C158.935 49.4072 158.736 49.4116 158.53 49.416L158.35 49.4198C157.706 49.4329 157.241 49.4424 157.12 49.5791C157.043 49.6654 157.041 50.1752 157.04 50.7655C157.039 51.3137 157.037 51.8315 157.115 51.948C157.236 52.1309 157.89 52.1209 158.522 52.1114C159.248 52.1004 159.773 52.0925 159.921 51.9428C160.008 51.8547 160.009 51.3964 160.01 50.762C160.011 50.697 160.011 50.6342 160.011 50.5736ZM162.146 52.0957H165.761V53.0448H161.521V48.4329H162.146V52.0957ZM169.826 48.3867L169.831 48.8612C169.836 49.3718 169.7 49.8675 169.45 50.257C169.214 50.6226 168.781 51.0519 168.022 51.1522L168.012 53.0225L167.388 53.016L167.397 51.1566C166.804 51.0832 166.309 50.7806 165.985 50.2844C165.726 49.888 165.586 49.3826 165.591 48.8612L165.596 48.3867L166.22 48.4005L166.216 48.875C166.213 49.1428 166.287 49.3989 166.428 49.6157C166.689 50.0148 167.144 50.2317 167.709 50.2249C168.285 50.2185 168.745 49.9942 169.003 49.5933C169.139 49.3829 169.209 49.1346 169.206 48.875L169.202 48.4005L169.826 48.3867ZM172.845 50.6579L174.965 48.5101V53.0583H174.34V50.2836L172.845 51.7986L171.35 50.2836V53.0583H170.725V48.5101L172.845 50.6579ZM179.119 48.399C179.515 48.399 180.103 48.7693 180.103 49.7893C180.103 50.8093 179.556 51.1795 179.189 51.1795H176.483L176.478 53.0127L175.854 53.0091L175.864 48.8743V48.399H175.865V48.3973L176.177 48.399L179.119 48.399ZM179.362 50.157C179.42 50.1082 179.479 50.0264 179.479 49.7893C179.479 49.5986 179.436 49.4954 179.327 49.4211C179.228 49.3536 179.12 49.3481 179.119 49.3481H176.488V50.2304H179.186C179.213 50.2289 179.295 50.2134 179.362 50.157ZM181.612 53.0682H180.993V48.5017H181.612V53.0682ZM184.676 48.0898L187.117 53.0181H186.332L185.65 51.6446H183.703L183.03 53.0181H182.254L184.676 48.0898ZM184.171 50.6954H185.182L184.676 49.6717L184.171 50.6954ZM191.613 49.3499C191.867 49.7418 192.005 50.2439 192 50.7637C191.994 51.4071 191.79 51.9942 191.425 52.4169C191.046 52.8571 190.511 53.0898 189.88 53.0898C188.676 53.0898 188.069 53.0629 188.063 53.0626L187.76 53.0488V48.4509H189.88C190.831 48.4509 191.347 48.9398 191.613 49.3499ZM189.88 52.1407C190.904 52.1407 191.369 51.4422 191.376 50.7501C191.378 50.4826 191.306 50.2288 191.169 50.0162C190.911 49.6188 190.453 49.4 189.88 49.4H188.385V52.1237C188.675 52.1314 189.173 52.1407 189.88 52.1407Z" fill="url(#paint2_linear_4155_3953)"/>
</g>
<defs>
<linearGradient id="paint0_linear_4155_3953" x1="26.087" y1="1.7334" x2="26.087" y2="32.4993" gradientUnits="userSpaceOnUse">
<stop stop-color="#8C82FF"/>
<stop offset="1" stop-color="#4A3AFF"/>
</linearGradient>
<linearGradient id="paint1_linear_4155_3953" x1="130.435" y1="1.29997" x2="132.162" y2="45.0661" gradientUnits="userSpaceOnUse">
<stop offset="0.0965754" stop-color="#8C82FF"/>
<stop offset="1" stop-color="#4A3AFF"/>
</linearGradient>
<linearGradient id="paint2_linear_4155_3953" x1="78" y1="50.5898" x2="192" y2="50.5898" gradientUnits="userSpaceOnUse">
<stop stop-color="#4A3AFF"/>
<stop offset="1" stop-color="#8C82FF"/>
</linearGradient>
<clipPath id="clip0_4155_3953">
<rect width="200" height="55" fill="white"/>
</clipPath>
</defs>
</svg>
