<svg width="17" height="16" viewBox="0 0 17 16" fill="none" xmlns="http://www.w3.org/2000/svg">
<path d="M15.4027 11.9156V8.12616C15.4027 4.07993 12.1226 0.799805 8.07635 0.799805C4.03012 0.799805 0.75 4.07993 0.75 8.12616V11.9156M0.75 11.3599C0.75 9.85296 1.97156 8.63143 3.47843 8.63143C4.48301 8.63143 5.29739 9.44581 5.29739 10.4504V13.3809C5.29739 14.3855 4.48301 15.1999 3.47843 15.1999C1.97156 15.1999 0.75 13.9784 0.75 12.4714V11.3599ZM10.8553 10.4504C10.8553 9.44581 11.6697 8.63143 12.6743 8.63143C14.1812 8.63143 15.4027 9.85296 15.4027 11.3599V12.4714C15.4027 13.9784 14.1812 15.1999 12.6743 15.1999C11.6697 15.1999 10.8553 14.3855 10.8553 13.3809V10.4504Z" stroke="#170F49" stroke-width="1.5" stroke-linecap="round" stroke-linejoin="round"/>
</svg>
